<?xml version="1.0" encoding="UTF-8"?><svg xmlns="http://www.w3.org/2000/svg" width="442" height="573" viewBox="-0.5 -0.5 442 573" ><style><![CDATA[.B{pointer-events:all}.C{font-family:Helvetica}.D{font-size:12px}.E{text-anchor:middle}.F{fill:#1ba1e2}.G{fill:#fff}.H{fill:#b0b0b0}.I{pointer-events:stroke}]]></style><g stroke="#b0b0b0" stroke-miterlimit="10"><path d="M210 60v30H70v23.63" fill="none" class="I"/><path d="M70 118.88l-3.5-7 3.5 1.75 3.5-1.75z" class="B H"/><path d="M210 60v30h160v27.63" fill="none" class="I"/><path d="M370 122.88l-3.5-7 3.5 1.75 3.5-1.75z" class="B H"/></g><path fill="#f9dc5c" d="M130 0h160v60H130z" class="B"/><text x="209.5" y="33.5" fill="#000" class="C D E">JavaScript Data Types</text><path d="M0 120h140v451H0zm300 4h140v82H300z" fill="#f5f5f5" class="B"/><rect x="10" y="155" width="120" height="40" rx="6" class="B F"/><text x="69.5" y="178.5" class="C D E G">null</text><rect x="10" y="215" width="120" height="40" rx="6" class="B F"/><text x="69.5" y="238.5" class="C D E G">undefined</text><rect x="10" y="275" width="120" height="40" rx="6" class="B F"/><text x="69.5" y="298.5" class="C D E G">boolean</text><rect x="10" y="330" width="120" height="40" rx="6" class="B F"/><text x="69.5" y="353.5" class="C D E G">number</text><rect x="10" y="395" width="120" height="40" rx="6" class="B F"/><text x="69.5" y="418.5" class="C D E G">bigint</text><rect x="10" y="455" width="120" height="40" rx="6" class="B F"/><text x="69.5" y="478.5" class="C D E G">string</text><rect x="10" y="515" width="120" height="40" rx="6" class="B F"/><text x="69.5" y="538.5" class="C D E G">symbol</text><rect x="310" y="155" width="120" height="40" rx="6" class="B F"/><text x="369.5" y="178.5" class="C D E G">object</text><text x="69.5" y="143.5" class="C D E H">Primitive</text><text x="369.5" y="143.5" class="C D E H">Complex</text></svg>